<svg xmlns="http://www.w3.org/2000/svg" xmlns:xlink="http://www.w3.org/1999/xlink" viewBox="0 0 114.39 131.49"><defs><style>.a{isolation:isolate;}.b{fill:#111;}.c{fill:#121b56;stroke:#fff;stroke-miterlimit:10;}.d{fill:#3a3a3a;}.e{fill:#fff;}.f{opacity:0.3;mix-blend-mode:overlay;fill:url(#a);}</style><linearGradient id="a" x1="1720.31" y1="1171.17" x2="1806.02" y2="1256.88" gradientTransform="translate(1820.38 1277.77) rotate(180)" gradientUnits="userSpaceOnUse"><stop offset="0" stop-color="#fff" stop-opacity="0.1"/><stop offset="0.84" stop-color="#282726"/></linearGradient></defs><title>Asset 67</title><g class="a"><path class="b" d="M58.13,3.27a1.65,1.65,0,0,0-1.91,0c-3.8,2.24-7.63,4.43-11.46,6.63Q24.44,21.63,4.09,33.32a2.52,2.52,0,0,0-1.45,2.5q.06,29.93,0,59.86A2.42,2.42,0,0,0,4,98.09c5,2.82,9.94,5.69,14.9,8.56q18.65,10.77,37.3,21.57a1.7,1.7,0,0,0,1.92,0q11.78-6.84,23.58-13.64,14.3-8.26,28.62-16.5a2.32,2.32,0,0,0,1.37-2.31c0-10,0-19.92,0-29.88s0-19.84,0-29.77a3,3,0,0,0-1.78-3q-14.77-8.43-29.49-17Q69.31,9.74,58.13,3.27Z"/><path class="c" d="M113.89,98.46c-3.07,2-6.33,3.77-9.51,5.61q-11.82,6.87-23.68,13.67-11.17,6.44-22.35,12.9a2.07,2.07,0,0,1-2.33,0q-11.31-6.56-22.64-13.07L5.81,101.66c-1.39-.8-2.76-1.63-4.17-2.4A2,2,0,0,1,.5,97.33Q.53,65.66.5,34a1.89,1.89,0,0,1,1.08-1.83Q20.36,21.36,39.1,10.53c5.4-3.11,10.81-6.21,16.18-9.38A3.14,3.14,0,0,1,58.88,1Q78.4,12.39,98,23.63l15.92,9.17Zm-2.18-32.61c0-9.92,0-19.84.05-29.77a3,3,0,0,0-1.78-3q-14.78-8.43-29.49-17Q69.32,9.7,58.13,3.24a1.64,1.64,0,0,0-1.9,0c-3.81,2.24-7.64,4.43-11.46,6.63Q24.44,21.6,4.1,33.29a2.51,2.51,0,0,0-1.45,2.5q.06,29.93,0,59.86a2.43,2.43,0,0,0,1.4,2.42c5,2.81,9.94,5.68,14.89,8.55q18.66,10.77,37.31,21.57a1.7,1.7,0,0,0,1.92,0q11.77-6.84,23.58-13.64Q96,106.28,110.37,98a2.32,2.32,0,0,0,1.37-2.31C111.69,85.77,111.71,75.81,111.71,65.85Z"/><path class="d" d="M47.07,104.71v2.66c0,.5-.13,1-.16,1.49a.51.51,0,0,1-.91.34,2.92,2.92,0,0,1-1-1.82.79.79,0,0,0-.11-.41,4.91,4.91,0,0,1-.58-1.55c-.08-.32-.3-.61-.24-1a2.72,2.72,0,0,0-.39-1.82,3.21,3.21,0,0,1-.36-1,3.17,3.17,0,0,0-.49-1,2.17,2.17,0,0,0-.83-.94,4.34,4.34,0,0,1-.26,1.62c-.11.4-.36.7-.65.72a.76.76,0,0,1-.85-.84c0-.66,0-1.31,0-2a3.12,3.12,0,0,1-1.31.26,2.07,2.07,0,0,1-.92-.11.5.5,0,0,0-.26-.06,3.62,3.62,0,0,1-1.73-.47.37.37,0,0,0-.34,0c-.21.12-.4,0-.62,0-.45-.05-.57-.41-.74-.7a.82.82,0,0,0-.69-.41c-.83-.07-1.67-.14-2.51-.17a8.83,8.83,0,0,1-1.64-.33,2.22,2.22,0,0,1-1.25-.62A1.27,1.27,0,0,1,28,96a25.14,25.14,0,0,1-.12-3.78c0-.21-.09-.39-.31-.38a5.27,5.27,0,0,0-1.37.09c-.36.11-.27.39-.37.57a1.3,1.3,0,0,1-.22.38,2.86,2.86,0,0,1-1.34.68,9.22,9.22,0,0,1-1,.28.29.29,0,0,0-.21.33c.05.64-.15,1.26-.16,1.89,0,.34,0,.81-.26,1a4.83,4.83,0,0,0-.75,1.13,1.44,1.44,0,0,1-.68.61,3.84,3.84,0,0,1-1.2.25c-1.08,0-2.16,0-3.23,0a3.36,3.36,0,0,1-.66-.17c-.17,0-.11-.22-.11-.34V94.7c0-11.25-.06-22.49,0-33.74,0-3.45,0-6.9.09-10.35,0-.38.26-.56.82-.59a4,4,0,0,1,1.6.34c.15.06.34,0,.46.16s.09,0,.11,0a.11.11,0,0,0,0-.15c-.26-.43-.49-.89-.78-1.3a3.21,3.21,0,0,1-.36-.86A20,20,0,0,1,17.52,46,8.91,8.91,0,0,1,17.44,44a8.76,8.76,0,0,1,.45-2.3c.34-.9.88-1.68,1.3-2.53a4.77,4.77,0,0,1,.87-1.2,4.23,4.23,0,0,1,.68-.78c.41-.26.7-.67,1.13-.9.25-.13.36-.41.58-.59a7.1,7.1,0,0,1,2.49-1.24c.56-.19,1.14-.31,1.7-.49a2.6,2.6,0,0,1,.79,0,.45.45,0,0,0,.45-.3,4,4,0,0,1,1.29-1.5,10.18,10.18,0,0,0,1.06-1,1.93,1.93,0,0,1,1-.52,4.65,4.65,0,0,0,1.31-.32A5.11,5.11,0,0,1,33.64,30a6.2,6.2,0,0,0,1.77-.71c.86-.42,1.74-.78,2.62-1.18a7.32,7.32,0,0,1,1.85-.55c.56-.1,1.13-.18,1.69-.27s1,0,1.53-.12A23.7,23.7,0,0,1,46.77,27a5.1,5.1,0,0,1,1.14.22,18.31,18.31,0,0,1,4,1.73,1,1,0,0,0,.46.05,12.47,12.47,0,0,1,1.93,0,2.81,2.81,0,0,0,1-.09,14.21,14.21,0,0,0,1.46-.38c.56-.22,1.17-.19,1.73-.36a.45.45,0,0,1,.23,0c.44.15.92.15,1.36.26a16.73,16.73,0,0,1,2.21.59,10.55,10.55,0,0,0,1.37.34,9.27,9.27,0,0,1,1.48.22,1.65,1.65,0,0,0,.59,0,2.69,2.69,0,0,1,2.44,1.83,1.28,1.28,0,0,0,.73.87,1.76,1.76,0,0,1,.59.66,5.27,5.27,0,0,1,.51.86c.2.46.59.82.77,1.3a12.23,12.23,0,0,0,.5,1.36c.3.62.55,1.26.86,1.88a18.61,18.61,0,0,1,.72,1.93,3.63,3.63,0,0,0,.48.68,6.77,6.77,0,0,1,.57,1.26,7,7,0,0,0,.44,1.06.37.37,0,0,0,.19-.22,2.5,2.5,0,0,1,.64-1,.26.26,0,0,0,.14-.22,3.49,3.49,0,0,1,.15-1.16c.07-.41.22-.81.33-1.21a3.42,3.42,0,0,0,.17-.82,3.71,3.71,0,0,1,.64-1.71c.15-.25.34-.47.47-.73a4.43,4.43,0,0,1,.88-1,6.21,6.21,0,0,0,1.13-1.37A11.64,11.64,0,0,1,81,31.76a3.45,3.45,0,0,1,1.38-1c.43-.14.89-.38,1.37-.07A.53.53,0,0,1,84,31,9.6,9.6,0,0,1,84.24,32a8.62,8.62,0,0,0,.21,1.44.9.9,0,0,1,0,.46.59.59,0,0,0,.87.58.9.9,0,0,1,.21-.08,13.72,13.72,0,0,1,2.22-.14,5.43,5.43,0,0,0,1.06-.16c.3,0,.48-.33.48-.67,0-.85-.06-1.7,0-2.54.07-.67,0-1.34.13-2a1.75,1.75,0,0,1,.85-1.3A7.83,7.83,0,0,0,92,26.36a2,2,0,0,1,.45-.26,3.64,3.64,0,0,0,.53-.31,1.25,1.25,0,0,1,1.64.13,1,1,0,0,1,.25.69c0,1.15.17,2.3.15,3.46,0,1.57-.08,3.16,0,4.73.07,1,0,2,.13,3,.1.67,0,1.34.13,2a5.23,5.23,0,0,1,.1,1.36c0,.73,0,1.46,0,2.2s.06,1.48,0,2.21c-.11,1.13-.09,2.26-.13,3.4,0,.27-.17.54-.11.83.18.84,0,1.71.14,2.55a38.66,38.66,0,0,1,.12,4c0,1.64-.1,3.29,0,4.92s0,3.47.12,5.19c.2,2.44.05,4.89.11,7.33a20.31,20.31,0,0,0-.19,2.34c0,.13,0,.27,0,.41a7.91,7.91,0,0,1-.24,1.93.87.87,0,0,0,0,.23c0,.21,0,.42,0,.63a15,15,0,0,1-.17,3c-.13,1.13,0,2.24-.09,3.35a3.74,3.74,0,0,1-.24,1c0,.15,0,.32-.09.47a.93.93,0,0,1-1.2.34,2.42,2.42,0,0,0-2.1.1.35.35,0,0,0-.2.21,1.56,1.56,0,0,1-.42.65s-.11.11-.1.15a2.32,2.32,0,0,1-.17,1c-.2.6,0,1.22-.22,1.81a1.74,1.74,0,0,0,0,.82,1.88,1.88,0,0,1-.18.85c-.13.4-.42.47-.85.35a5.7,5.7,0,0,1-.72-.29.61.61,0,0,1-.34-.28c-.28-.64-.9-.7-1.43-.91a12.82,12.82,0,0,1-1.62-.8,12.06,12.06,0,0,1-1.74-1.45A8.1,8.1,0,0,0,82.21,89a16.56,16.56,0,0,0-1.72-.9c-.52-.22-1.06-.39-1.58-.62a6.19,6.19,0,0,1-1.13-.54.7.7,0,0,1-.36-.59,4.88,4.88,0,0,1,.21-1.14c.14-.52.63-.73,1.07-.92a2.23,2.23,0,0,0,.79-.56,6.08,6.08,0,0,1,1.59-1.16.29.29,0,0,0,.18-.3,4.31,4.31,0,0,1,.41-2.12.67.67,0,0,0,0-.49,3,3,0,0,1,.09-2c0-.09.07-.17,0-.23a3.1,3.1,0,0,0-1.23-.65c-.78-.13-1.55-.18-2.32-.28a4.67,4.67,0,0,1-1.31-.33.86.86,0,0,0-1,.16,4.51,4.51,0,0,1-1.81,1,3.29,3.29,0,0,1-.72.17c-.31,0-.5.24-.36.51a1.46,1.46,0,0,1-.06,1.23,3.87,3.87,0,0,1-.48,1.26,3.2,3.2,0,0,1-.37.56,1.27,1.27,0,0,0-.32.85q-.09.63-.12,1.26A2,2,0,0,0,72,84.37a3,3,0,0,1,.36,1.52.45.45,0,0,1-.2.39.86.86,0,0,0-.34.8,5.86,5.86,0,0,1,0,1.51,2.6,2.6,0,0,0-.07,1.2,3.48,3.48,0,0,1,.08,1.43,8.21,8.21,0,0,1-.36,2.56.58.58,0,0,0,0,.23,15.61,15.61,0,0,0,0,1.81,11,11,0,0,1,.12,1.4c0,.67-.43,1-1,1a3.64,3.64,0,0,1-.63-.16,4,4,0,0,0-1.5,0,12.52,12.52,0,0,0-2,.68h0c-.18,0-.39,0-.51.16a.94.94,0,0,0-.06.64,12.73,12.73,0,0,1-.17,2c-.07.76-.24,1.51-.25,2.29a3.54,3.54,0,0,1-.21.94.73.73,0,0,0,0,.29,1.31,1.31,0,0,1-1.28,1.31,26.5,26.5,0,0,1-3,.09,1.66,1.66,0,0,1-1.27-.49c-.23-.25-.58-.27-.87-.41a.58.58,0,0,1-.23-.17c-.21-.29-.39-.14-.49.06a2.21,2.21,0,0,1-.45.55l-.44.55a2.17,2.17,0,0,1-1,.72,6.28,6.28,0,0,0-.59.27,3.58,3.58,0,0,1-1.26.12c-.42,0-.84,0-1.26,0a.85.85,0,0,1-.9-.82,3.61,3.61,0,0,0-.18-.72.78.78,0,0,0-1.11-.55,3.74,3.74,0,0,1-1.1.11,1.85,1.85,0,0,1-1.38-.36A5.37,5.37,0,0,0,47.07,104.71Z"/><path class="e" d="M40.41,58.62H38.32c0-.27,0-1.06,0-2.38s0-2.2,0-2.62,0-1.13,0-2,0-1.54,0-2a3.65,3.65,0,0,0-.58-2.18,2.31,2.31,0,0,0-1.87-.66,5.68,5.68,0,0,0-1.93.45,16.25,16.25,0,0,0-2.48,1.23l.06,10.14H29.46c0-.35,0-1.73,0-4.15s0-4.42,0-6c0-1,0-2.3,0-3.86s0-3.33-.05-5.34h2.09l-.06,7.5h0a19.48,19.48,0,0,1,3.08-1.46,6.66,6.66,0,0,1,2.06-.41A3.59,3.59,0,0,1,39.36,46a4,4,0,0,1,1,2.91c0,1.11,0,2.06,0,2.87s0,1.45,0,1.95q0,1.2,0,2.76C40.38,57.52,40.4,58.23,40.41,58.62Z"/><path class="e" d="M55.43,51.46H45.9A5.78,5.78,0,0,0,46.5,54,4.76,4.76,0,0,0,48.28,56a5.66,5.66,0,0,0,1.74.73,9.37,9.37,0,0,0,2.34.25c.5,0,1,0,1.38,0l.77,0-.24,1.75-.69,0c-.4,0-.87,0-1.4,0a11,11,0,0,1-3.67-.55,7,7,0,0,1-2.57-1.51,6.83,6.83,0,0,1-1.45-2.06,6.33,6.33,0,0,1-.6-2.78,8,8,0,0,1,.44-2.71,7.41,7.41,0,0,1,1.35-2.26,5.1,5.1,0,0,1,1.93-1.38A6,6,0,0,1,50,44.93a5.89,5.89,0,0,1,2.18.37,4.52,4.52,0,0,1,1.65,1.12A5.57,5.57,0,0,1,55,48.5,9.18,9.18,0,0,1,55.43,51.46Zm-2-1.48a4.33,4.33,0,0,0-1.11-2.56,3.17,3.17,0,0,0-2.38-.93,3.43,3.43,0,0,0-2.47.94A5.07,5.07,0,0,0,46.06,50Z"/><path class="e" d="M77.82,58.62H75.74c0-.1,0-.72,0-1.85s0-2.2,0-3.2c0-.4,0-1,0-2s0-1.57,0-2a3.23,3.23,0,0,0-.62-2.19,2.4,2.4,0,0,0-1.81-.61,5.24,5.24,0,0,0-1.73.36,12.58,12.58,0,0,0-2.24,1.12v.26c0,.13,0,.31,0,.52,0,.71,0,1.43,0,2.16s0,1.44,0,2.1c0,1.46,0,2.68,0,3.68s0,1.53,0,1.62H67.33c0-.1,0-.63,0-1.6s0-2.11,0-3.43c0-.44,0-1.1,0-2s0-1.54,0-2a7.75,7.75,0,0,0-.1-1.1,2.2,2.2,0,0,0-.35-.9,1.68,1.68,0,0,0-.71-.61A2.92,2.92,0,0,0,65,46.8a4.55,4.55,0,0,0-1.72.43A17.48,17.48,0,0,0,61,48.48c0,.15,0,.71,0,1.68s0,1.76,0,2.37c0,1,0,2.3,0,3.76s0,2.24,0,2.33H58.92c0-.08,0-.59,0-1.54s0-2.53,0-4.74c0-.72,0-1.69,0-2.91s0-2.61,0-4.16h2v1.52h0a13.83,13.83,0,0,1,2.22-1.25,5.84,5.84,0,0,1,2.37-.62,4,4,0,0,1,2.16.54A3.16,3.16,0,0,1,69,46.84h0a17.13,17.13,0,0,1,2.79-1.42,6.16,6.16,0,0,1,2.17-.49A3.75,3.75,0,0,1,76.77,46a4,4,0,0,1,1,2.87c0,.93,0,1.72,0,2.35s0,1.31,0,2c0,1.47,0,2.72,0,3.74S77.82,58.54,77.82,58.62Z"/><path class="e" d="M84.91,42.72H82.59V40.45h2.32Zm-.12,15.9H82.71c0-.15,0-1,0-2.6s0-2.91,0-3.94v-3c0-1.09,0-2.36-.05-3.82h2.08c0,1.27,0,2.45,0,3.56s0,2.08,0,2.94c0,2,0,3.69,0,4.93S84.79,58.58,84.79,58.62Z"/><path class="e" d="M34.76,84.83a6.43,6.43,0,0,1-1.06,3.72,6.36,6.36,0,0,1-2.87,2.31,11,11,0,0,1-2.67.74,24.78,24.78,0,0,1-3.61.23H23.37c0-.68,0-1.94,0-3.77s0-4,0-6.63c0-1.58,0-3.11,0-4.6s0-3,0-4.54h2.09l0,6.08a16.65,16.65,0,0,1,4.33.48,8.49,8.49,0,0,1,2.71,1.23,5.35,5.35,0,0,1,1.71,2A6,6,0,0,1,34.76,84.83Zm-2.11.06a4,4,0,0,0-.9-2.68,5.07,5.07,0,0,0-2.33-1.56,9.25,9.25,0,0,0-1.59-.39,10.24,10.24,0,0,0-1.77-.14h-.64c0,.19,0,.89,0,2.1s0,2.2,0,3c0,1.47,0,2.5,0,3.11s0,1.22,0,1.84a14.41,14.41,0,0,0,2.65-.22,7.19,7.19,0,0,0,2.07-.67A4.55,4.55,0,0,0,32,87.49,5.16,5.16,0,0,0,32.65,84.89Z"/><path class="e" d="M46,79.83a20.2,20.2,0,0,0-2.22.72c-1,.37-2.14.87-3.44,1.48,0,.1,0,.54,0,1.33s0,1.51,0,2.19q0,1.56,0,3.69c0,1.43,0,2.22,0,2.38H38.32c0-.15,0-.65,0-1.48s0-2.26,0-4.29c0-.81,0-2,0-3.42s0-2.86,0-4.16h2v2h0a28.64,28.64,0,0,1,2.94-1.46A16.74,16.74,0,0,1,45.64,78Z"/><path class="e" d="M57.87,84.1c0,2.18,0,4,0,5.33s0,2.11,0,2.21l-1.23.1q-1.09.09-2.82.09a12.45,12.45,0,0,1-2.18-.2,7.58,7.58,0,0,1-1.88-.57A4.55,4.55,0,0,1,48,89.73a3.47,3.47,0,0,1,.12-4.2,5.48,5.48,0,0,1,2.14-1.48,12.4,12.4,0,0,1,2.29-.64A28.87,28.87,0,0,1,55.84,83a3.48,3.48,0,0,0-.51-1.69,2.71,2.71,0,0,0-1.28-1A5.54,5.54,0,0,0,52.76,80a13.49,13.49,0,0,0-1.66-.09c-.4,0-.73,0-1,0L49,80l.21-1.76.79,0c.39,0,.92,0,1.6,0a10.6,10.6,0,0,1,2.77.32,4.68,4.68,0,0,1,2,1,4.23,4.23,0,0,1,1.13,1.69A8.51,8.51,0,0,1,57.87,84.1Zm-2,3.18V86.14c0-.45,0-1,0-1.58-.38,0-1.06.1-2,.23a11.19,11.19,0,0,0-2.44.59,3.79,3.79,0,0,0-1.31.83,1.84,1.84,0,0,0-.57,1.37A2,2,0,0,0,50,89a3,3,0,0,0,1.33.84,6.67,6.67,0,0,0,1.43.32,12.4,12.4,0,0,0,1.65.1H55l.8,0c0-.06,0-.35,0-.87S55.86,88.16,55.86,87.28Z"/><path class="e" d="M64.93,75.72H62.61V73.45h2.32Zm-.12,15.9H62.73c0-.15,0-1,0-2.6s0-2.91,0-3.94,0-1.9,0-3,0-2.36,0-3.82h2.08c0,1.27,0,2.45,0,3.56s0,2.08,0,2.94c0,2,0,3.69,0,4.93S64.81,91.58,64.81,91.62Z"/><path class="e" d="M80.71,91.62H78.62c0-.25,0-1.06,0-2.44s0-2.24,0-2.56,0-1.13,0-2,0-1.54,0-2a3.65,3.65,0,0,0-.58-2.18,2.29,2.29,0,0,0-1.87-.66,5.51,5.51,0,0,0-2,.48,15.89,15.89,0,0,0-2.4,1.21c0,.1,0,.62,0,1.57s0,1.81,0,2.6c0,1,0,2.25,0,3.69s0,2.19,0,2.27H69.77c0-.07,0-.6,0-1.62s0-2.52,0-4.53c0-.92,0-2,0-3.24s0-2.56,0-4h2v1.55a17.38,17.38,0,0,1,3.08-1.47,6.64,6.64,0,0,1,2-.42A3.57,3.57,0,0,1,79.66,79a4,4,0,0,1,1,2.91c0,1.11,0,2.06,0,2.87s0,1.45,0,2c0,.8,0,1.8,0,3S80.71,91.55,80.71,91.62Z"/><path class="e" d="M93.17,79.83a19.53,19.53,0,0,0-2.23.72c-1,.37-2.14.87-3.44,1.48,0,.1,0,.54,0,1.33s0,1.51,0,2.19q0,1.56,0,3.69c0,1.43,0,2.22,0,2.38H85.45c0-.15,0-.65,0-1.48s0-2.26,0-4.29c0-.81,0-2,0-3.42s0-2.86,0-4.16h2v2h0a28.64,28.64,0,0,1,2.94-1.46A16.74,16.74,0,0,1,92.77,78Z"/><path class="f" d="M56.26,126.22a1.67,1.67,0,0,0,1.91,0c3.8-2.23,7.63-4.42,11.46-6.62Q90,107.87,110.29,96.16a2.5,2.5,0,0,0,1.46-2.49q-.06-29.93,0-59.86a2.42,2.42,0,0,0-1.4-2.42c-5-2.81-9.94-5.69-14.9-8.55Q76.8,12.06,58.15,1.26a1.7,1.7,0,0,0-1.92,0Q44.44,8.12,32.65,14.92,18.36,23.17,4,31.41a2.34,2.34,0,0,0-1.37,2.32c0,10,0,19.92,0,29.88s0,19.84,0,29.76a3,3,0,0,0,1.78,3c9.85,5.62,19.66,11.3,29.49,17Q45.09,119.76,56.26,126.22Z"/></g></svg>